<?xml version="1.0" encoding="utf-8"?>
<!-- Generator: Adobe Illustrator 16.0.0, SVG Export Plug-In . SVG Version: 6.00 Build 0)  -->
<!DOCTYPE svg PUBLIC "-//W3C//DTD SVG 1.1//EN" "http://www.w3.org/Graphics/SVG/1.1/DTD/svg11.dtd">
<svg version="1.1" id="图层_1" xmlns="http://www.w3.org/2000/svg" xmlns:xlink="http://www.w3.org/1999/xlink" x="0px" y="0px"
	 width="480px" height="480px" viewBox="0 0 480 480" enable-background="new 0 0 480 480" xml:space="preserve">
<circle fill="#FFFFFF" cx="240.333" cy="240.334" r="240"/>
<path fill="#FF9700" d="M476.186,195.694c-40.279,52.015-115.511,143.766-236.034,144.241c144.066-16.608,118.946-199.457,0-199.457
	c-59.609,0-169.855,16.529-238.838,99.629C1.314,107.477,108.625-0.042,241-0.042c90.773,0,169.761,50.558,210.443,125.102
	C470.086,159.224,471.312,169.946,476.186,195.694z"/>
<ellipse fill="#FFFFFF" stroke="#FF9100" stroke-miterlimit="10" cx="240.153" cy="239.601" rx="100.402" ry="100.597"/>
<path fill="#FF0000" d="M480.686,240.371c0,132.63-107.311,240.148-239.686,240.148c-96.825,0-180.24-57.521-218.061-140.323
	c-13.885-30.4-8.326-16.158-17.476-53.049c49.908-59.82,134.721-149.6,235.536-146.5c-122.471-1.64-145.111,186.256-0.848,199.552
	C308.338,339.13,381.348,335.781,480.686,240.371z"/>
</svg>
